<mxfile host="app.diagrams.net" modified="2020-10-08T12:55:22.708Z" agent="5.0 (X11; CrOS x86_64 13310.93.0) AppleWebKit/537.36 (KHTML, like Gecko) Chrome/85.0.4183.133 Safari/537.36" etag="CGEpjs7dzLW7QdGHQTiT" version="13.6.9" type="github">
  <diagram id="PELBomNMWBvVzumj741K" name="Page-1">
    <mxGraphModel dx="868" dy="490" grid="1" gridSize="10" guides="1" tooltips="1" connect="1" arrows="1" fold="1" page="1" pageScale="1" pageWidth="850" pageHeight="1100" math="0" shadow="0">
      <root>
        <mxCell id="0" />
        <mxCell id="1" parent="0" />
        <mxCell id="tDJhNT4e19hjTq6moD6B-1" value="" style="rounded=0;whiteSpace=wrap;html=1;" vertex="1" parent="1">
          <mxGeometry x="10" y="130" width="750" height="300" as="geometry" />
        </mxCell>
        <mxCell id="tDJhNT4e19hjTq6moD6B-2" value="what we want it to do" style="rounded=0;whiteSpace=wrap;html=1;" vertex="1" parent="1">
          <mxGeometry x="10" y="130" width="370" height="60" as="geometry" />
        </mxCell>
        <mxCell id="tDJhNT4e19hjTq6moD6B-7" style="edgeStyle=orthogonalEdgeStyle;rounded=0;orthogonalLoop=1;jettySize=auto;html=1;exitX=1;exitY=0;exitDx=0;exitDy=0;entryX=0.16;entryY=0.233;entryDx=0;entryDy=0;entryPerimeter=0;" edge="1" parent="1" source="tDJhNT4e19hjTq6moD6B-3" target="tDJhNT4e19hjTq6moD6B-1">
          <mxGeometry relative="1" as="geometry">
            <Array as="points">
              <mxPoint x="340" y="190" />
              <mxPoint x="340" y="250" />
              <mxPoint x="130" y="250" />
            </Array>
          </mxGeometry>
        </mxCell>
        <mxCell id="tDJhNT4e19hjTq6moD6B-3" value="run continuously" style="rounded=0;whiteSpace=wrap;html=1;" vertex="1" parent="1">
          <mxGeometry x="10" y="190" width="370" height="60" as="geometry" />
        </mxCell>
        <mxCell id="tDJhNT4e19hjTq6moD6B-4" value="if light level &amp;gt; 128" style="rounded=0;whiteSpace=wrap;html=1;" vertex="1" parent="1">
          <mxGeometry x="10" y="250" width="370" height="60" as="geometry" />
        </mxCell>
        <mxCell id="tDJhNT4e19hjTq6moD6B-5" value="scroll message" style="rounded=0;whiteSpace=wrap;html=1;" vertex="1" parent="1">
          <mxGeometry x="10" y="310" width="370" height="60" as="geometry" />
        </mxCell>
        <mxCell id="tDJhNT4e19hjTq6moD6B-6" value="if light level &amp;lt;= 128" style="rounded=0;whiteSpace=wrap;html=1;" vertex="1" parent="1">
          <mxGeometry x="10" y="370" width="370" height="60" as="geometry" />
        </mxCell>
        <mxCell id="tDJhNT4e19hjTq6moD6B-8" value="code blocks to use" style="rounded=0;whiteSpace=wrap;html=1;" vertex="1" parent="1">
          <mxGeometry x="380" y="130" width="380" height="60" as="geometry" />
        </mxCell>
        <mxCell id="tDJhNT4e19hjTq6moD6B-9" value="forever" style="rounded=0;whiteSpace=wrap;html=1;" vertex="1" parent="1">
          <mxGeometry x="380" y="190" width="380" height="60" as="geometry" />
        </mxCell>
        <mxCell id="tDJhNT4e19hjTq6moD6B-10" value="if light level &amp;gt; 128" style="rounded=0;whiteSpace=wrap;html=1;" vertex="1" parent="1">
          <mxGeometry x="380" y="250" width="380" height="60" as="geometry" />
        </mxCell>
        <mxCell id="tDJhNT4e19hjTq6moD6B-11" value="the message scrolls" style="rounded=0;whiteSpace=wrap;html=1;" vertex="1" parent="1">
          <mxGeometry x="380" y="310" width="380" height="60" as="geometry" />
        </mxCell>
        <mxCell id="tDJhNT4e19hjTq6moD6B-12" value="else" style="rounded=0;whiteSpace=wrap;html=1;" vertex="1" parent="1">
          <mxGeometry x="380" y="370" width="380" height="60" as="geometry" />
        </mxCell>
        <mxCell id="tDJhNT4e19hjTq6moD6B-13" value="scroll animation" style="rounded=0;whiteSpace=wrap;html=1;" vertex="1" parent="1">
          <mxGeometry x="10" y="430" width="370" height="60" as="geometry" />
        </mxCell>
        <mxCell id="tDJhNT4e19hjTq6moD6B-14" value="animation scrolls" style="rounded=0;whiteSpace=wrap;html=1;" vertex="1" parent="1">
          <mxGeometry x="380" y="430" width="380" height="60" as="geometry" />
        </mxCell>
      </root>
    </mxGraphModel>
  </diagram>
</mxfile>
